PathFileType	4	(X/Y/Z)	5_2_58_p1_0-412.trc
DataRate	CameraRate	NumFrames	NumMarkers	Units	OrigDataRate	OrigDataStartFrame	OrigNumFrames
59.0	59.0	6	27	m	59.0	51	413
Frame#	Time	RHip			RKnee			RAnkle			RBigToe			RSmallToe			RHeel			LHip			LKnee			LAnkle			LBigToe			LSmallToe			LHeel			Neck			Head			Nose			RShoulder			RElbow			RWrist			RThumb			RIndex			RPinky			LShoulder			LElbow			LWrist			LThumb			LIndex			LPinky			
		X1	Y1	Z1	X2	Y2	Z2	X3	Y3	Z3	X4	Y4	Z4	X5	Y5	Z5	X6	Y6	Z6	X7	Y7	Z7	X8	Y8	Z8	X9	Y9	Z9	X10	Y10	Z10	X11	Y11	Z11	X12	Y12	Z12	X13	Y13	Z13	X14	Y14	Z14	X15	Y15	Z15	X16	Y16	Z16	X17	Y17	Z17	X18	Y18	Z18	X19	Y19	Z19	X20	Y20	Z20	X21	Y21	Z21	X22	Y22	Z22	X23	Y23	Z23	X24	Y24	Z24	X25	Y25	Z25	X26	Y26	Z26	X27	Y27	Z27	
51	0.864406779661017	0.3587226865976037	0.5353011595457711	0.8163846900289554	0.36988514189280164	0.6040139863427048	1.2310743682274425	0.3744701058534951	0.7463412092459738	1.6829509961119131	0.37359701789816874	0.5165055045706555	1.6413799604540378	0.4262319490206332	0.5676431126940391	1.6512901902267643	0.3691169094833909	0.8373121407015729	1.7508253459824632	0.13743568452699462	0.5084231105837229	0.8346446367070804	0.1677967421082979	0.5791488468242427	1.242524712730405	0.1743099700350192	0.6853598212923484	1.669304235757371	0.28908824981154563	0.5521146629751742	1.6803835008949461	0.2196809842951395	0.5224348187534867	1.6878040436065653	0.13599131409676823	0.7789991715254173	1.746938733788915	0.23007330016545532	0.4416464858471766	0.3066503282680394	0.24376854213783142	0.32282406845327816	0.06621325127474224	0.25492759599428283	0.2877477608799125	0.21312420168430257	0.40961670753577684	0.4756780666313348	0.3843340870696644	0.47669448481616417	0.5709998333034332	0.6323075208275519	0.43134048667237546	0.46135547548032513	0.8452131228889732	0.33508051679694456	0.44452514594449943	0.9719524553769034	0.3536821486325951	0.43538009278810547	0.9838513901171644	0.4192858476896865	0.4764817942033607	0.9866343246986743	0.08446928722014614	0.4648237232564595	0.40785019395442795	0.030851712087422944	0.5090271319102874	0.6715222323781639	0.04095713187868439	0.509639285059006	0.9271986137510657	0.12593873229727082	0.4841435155597909	1.0327820601372817	0.11447848813134233	0.4564095417024924	1.0487243904740449	0.04428936372639246	0.5226510233666288	1.0621714176172297
52	0.8813559322033898	0.3611317643982789	0.5385822953173862	0.8287668343333097	0.3701318070574878	0.6164252987718918	1.2383468156356296	0.36925962920138705	0.7462488268503503	1.6791587399295802	0.3738417963951931	0.5211567496257602	1.6447889672618874	0.4211362866802987	0.6015474307284236	1.6656605742726083	0.3650895697725548	0.8393775011016843	1.7508932550524945	0.13893891354688076	0.5120312305514682	0.8479555000996502	0.16850682151171711	0.5818448370826939	1.2470974319738068	0.1704390257483999	0.6822004777538405	1.6688938314296986	0.2931280328831587	0.5566005505628381	1.681767938041299	0.215217314242852	0.5605481042209461	1.7048621841230813	0.13618749510342748	0.7778084187068628	1.7483816933677996	0.23008039581644343	0.4417206494200943	0.30663223976746706	0.24372151435052186	0.3227366542115918	0.06613997020918663	0.2498566535263031	0.2990187924364	0.2127659371683376	0.40960376989937547	0.47542175052358676	0.3843164252358988	0.4859907621301868	0.5753802201483529	0.6321110172125786	0.4260520103895204	0.460851960486399	0.8384188336510119	0.32689851419197397	0.45699719234592756	0.9618709251767009	0.33558649363089965	0.4459683163210965	0.983142875717131	0.40241851174421883	0.4417693168783897	0.9745081516935883	0.08441888200267501	0.46504688816386064	0.4079255016117905	0.030993442085490087	0.512071154965738	0.6793098198501705	0.04097968867056527	0.5097730814442989	0.9273418229607406	0.132103410796823	0.4699795501832851	1.02513653039195	0.11459520092814396	0.456197336107875	1.048875569938163	0.045072891747119065	0.5217406319412966	1.0661234614726
53	0.8983050847457628	0.36750150096104106	0.5357622697837302	0.8281492942059215	0.37485959575906946	0.6095931445366113	1.2362086309327625	0.3849531333928543	0.7318257677889367	1.6758849276542367	0.37124188881822817	0.5147612693529414	1.642735862174253	0.4254239934562444	0.5814534457585476	1.6615479944153442	0.38579436411651574	0.8156391458854173	1.7449638420274545	0.13816064981561557	0.513038071492649	0.8526570223091104	0.16693698811173938	0.5800565922357581	1.247828043198348	0.17427266543323255	0.68492784136857	1.669397725719254	0.2849294920610487	0.5483803818798842	1.6797234538987613	0.20760263484955122	0.520699112940739	1.6889201747659008	0.13585417243658457	0.7790223562240857	1.745902915984517	0.2301364355179338	0.44178565695284816	0.3066304295313323	0.24369918425663678	0.3228846427028804	0.06618725189068174	0.24985742972352673	0.2990048546609729	0.2127608023188503	0.40966657708123916	0.47551527538711447	0.38427531569270923	0.4942693574746709	0.5894524657625676	0.6289106765222986	0.41943544281435197	0.45525349184020175	0.8184259555645756	0.3109177394282408	0.44806031760041715	0.929542093906928	0.32421571845315394	0.44762583925711197	0.9637161069721124	0.3850373842726449	0.40022862835425244	0.9638869817851144	0.08445235528338063	0.465041596226026	0.40791554798025886	0.030614464817856533	0.5103963131450159	0.6757157028596095	0.040904553933969	0.510029732274124	0.9273309380271564	0.12754991095166154	0.49487246674271274	1.03057896737215	0.11570915621005795	0.4701439964890014	1.0511344009209496	0.0442688790961605	0.5236499615399982	1.0624041662752037
54	0.9152542372881356	0.36035809895203363	0.5550736737764735	0.8444408844692965	0.3682075896740107	0.6067923393143163	1.249677294600473	0.37592563741584434	0.7335003480766171	1.6868328860549815	0.3602768592756867	0.4843502960193595	1.6373102510881878	0.412065495940954	0.5793189580729121	1.6624673445279683	0.38108428586305815	0.823011694463084	1.7502149788641197	0.13932987673691133	0.5184949120733128	0.8638439186290606	0.16884522124233656	0.5862834412721208	1.2675921725598784	0.18067179912367123	0.6699555851272115	1.6628069698484964	0.27349168254717543	0.5395494717062557	1.6820765313597945	0.2007974806127244	0.5354157086285085	1.6958644172053414	0.14279215059510697	0.761856822902127	1.7359620737485686	0.23013856227281218	0.44173339544719187	0.30658471438446483	0.24370112541665678	0.3228788102378404	0.0661332328239669	0.25683803603086697	0.298640427891597	0.2121297599245795	0.40718498457540525	0.46328860393699195	0.38466828745757836	0.5025035968752526	0.5897274640057077	0.6355552660307606	0.4111097543476739	0.4537432505062339	0.8105854275639277	0.3061580005670205	0.41667747224723367	0.8982561087144163	0.31251022660630634	0.40839067073969465	0.9072877643450933	0.3403653202975382	0.45038102124654694	0.9523937481753039	0.08447153619322582	0.46497488935216347	0.4079123997894379	0.03075321618158778	0.5102210742419275	0.6757773469734334	0.04155789280071731	0.5087782785037213	0.923430673800383	0.12684253189370198	0.48157442348261825	1.0240460353844485	0.10789653823674364	0.4662605626959405	1.0515904916822445	0.04632384416249385	0.5383324479722371	1.0734560234774793
55	0.9322033898305084	0.3586244390344265	0.5475561650706668	0.8268747577543554	0.3689949030313366	0.6015952744592992	1.2474204060290586	0.3767479185995372	0.7320706670802021	1.6824116677047851	0.3573695263245988	0.49815801708825186	1.6435034427241126	0.41546896446665826	0.5815854427540452	1.6629445658132616	0.3735346475855009	0.8254280534240769	1.7558111885900736	0.14280553985285194	0.5159327458363955	0.8575661868360666	0.1710941380889929	0.5832341542811289	1.2701719524409538	0.17781688735923065	0.6699733372891026	1.6680275629313466	0.2736651404605702	0.5397075511355056	1.6828493438625058	0.188032418271624	0.5656553484464537	1.7106209237475227	0.14289559690522763	0.7613862805778262	1.7365514903844605	0.23025736930113333	0.44184913003371235	0.30655441280261697	0.24373740732725468	0.32289650100058526	0.06610950591367155	0.25685040777902607	0.29871787375253367	0.21213847542922992	0.4071737062726695	0.4631952320554859	0.3847047918265202	0.5028199720527365	0.5876279310193055	0.6320139883008252	0.41193309843235626	0.43362576035064976	0.7883466746955262	0.2757615311084185	0.3537510386740074	0.8402219845097094	0.280429712063637	0.36917995061893605	0.869522609410975	0.33335028433959873	0.417036896046993	0.8989165985722978	0.08451950548767417	0.4650663950506323	0.4078984751918758	0.03503862114169466	0.5153440038011238	0.6792002685492352	0.04100343037137863	0.5100175929398134	0.927350725654209	0.1203695420239741	0.46595371179250866	1.0256215001197004	0.09629963209650752	0.46246266324075036	1.0524828722351922	0.04646411274897242	0.5379315794321311	1.0732946907982372
56	0.9491525423728814	0.3523976257341989	0.5521065405978498	0.83239043106702	0.36611803563543033	0.603862343541914	1.240238168247174	0.3794287033391204	0.7325537515029328	1.6808168659054095	0.36433219283865825	0.48022735894079244	1.632578155727053	0.4129444674890992	0.5624203768863257	1.6561388129406631	0.3769900882517214	0.8253726237919665	1.7519043339784846	0.13935961384549642	0.5167186233596388	0.8454280384971746	0.16843133230593488	0.5844822676090754	1.2620077444416875	0.17022166568735125	0.6826298298322236	1.6697085693929286	0.27497608044441724	0.5388999190504852	1.6773327432226983	0.19198100477231966	0.5355660686476147	1.6937415575943542	0.14270645300864873	0.7613788985137157	1.7369631741981237	0.23033722983763566	0.44190689851025283	0.30655347009902856	0.24516150129070893	0.33372692166980583	0.06468021521494216	0.25176547458050974	0.309993503298842	0.2118231413952458	0.4071518816411985	0.4632224842291483	0.38463817903765424	0.50289612554066	0.5897149771254855	0.6394674055512781	0.40211052894746147	0.4350817261989526	0.7781205985672286	0.2530841040084281	0.38303307098418254	0.8219850613380837	0.25110856580498686	0.3830529689148799	0.8347795626163154	0.3173667873674597	0.4161813090068392	0.8883586537153254	0.08463260803130573	0.4649947188838242	0.4078559379978288	0.03887248887076659	0.514638489267149	0.6708023092591522	0.04103239077916911	0.5073502043095539	0.9185073504327403	0.1237646719061163	0.45893177177209643	1.027510202572416	0.10062391072217831	0.4675755138580804	1.0580247621417582	0.0455664620647185	0.5260683685181358	1.071460336750761
